<svg id="Layer_1" data-name="Layer 1" xmlns="http://www.w3.org/2000/svg" viewBox="0 0 170 170"><defs><style>.cls-1{fill:#0088cf;}.cls-1,.cls-2,.cls-3{fill-rule:evenodd;}.cls-2{fill:#00b27c;}.cls-3{fill:#231f20;}.cls-4{fill:none;stroke:#231f20;stroke-miterlimit:2.61;stroke-width:0.53px;}</style></defs><polygon class="cls-1" points="44.23 64.79 44.23 73.78 26.78 73.78 26.78 64.79 20 64.79 20 77.12 50.94 77.12 50.94 64.79 44.23 64.79 44.23 64.79"/><polygon class="cls-1" points="57.26 64.79 57.26 77.12 64.05 77.12 64.05 64.79 57.26 64.79 57.26 64.79"/><polygon class="cls-1" points="112.74 76.27 112.74 76.27 112.74 64.79 106.03 64.79 106.03 77.12 112.74 77.12 112.74 76.27 112.74 76.27 112.74 76.27"/><polygon class="cls-1" points="143.29 64.79 143.29 77.12 150 77.12 150 64.79 143.29 64.79 143.29 64.79"/><polygon class="cls-1" points="136.89 64.79 126.99 64.79 112.74 76.18 113.8 77.12 123.41 77.12 122.19 76.18 136.89 64.79 136.89 64.79"/><polygon class="cls-2" points="112.74 76.18 127.83 89.54 138.8 89.54 122.19 76.18 112.74 76.18 112.74 76.18"/><polygon class="cls-2" points="106.03 76.18 106.03 89.54 112.74 89.54 112.74 76.18 106.03 76.18 106.03 76.18"/><polygon class="cls-2" points="20 76.18 20 89.62 26.78 89.62 26.78 79.78 44.23 79.78 44.23 89.62 50.94 89.62 50.94 76.18 20 76.18 20 76.18"/><polygon class="cls-2" points="57.26 76.18 57.26 89.62 64.05 89.62 64.05 76.18 57.26 76.18 57.26 76.18"/><polygon class="cls-2" points="143.29 76.18 143.29 89.54 150 89.54 150 76.18 143.29 76.18 143.29 76.18"/><path class="cls-1" d="M98.34,70.27a17.16,17.16,0,0,0-13.42-6.68,17,17,0,0,0-13.26,6.68v-.08A11.4,11.4,0,0,0,69.45,77H77.3a18.55,18.55,0,0,1,3-8.56h.07A5.61,5.61,0,0,1,85,65.91a5.83,5.83,0,0,1,4.88,2.74H90A17.83,17.83,0,0,1,92.7,77h7.92a11.49,11.49,0,0,0-2.28-6.68Z"/><path class="cls-2" d="M71.82,84.14h0A16.87,16.87,0,0,0,85,90.65a17.09,17.09,0,0,0,12.8-6h0a11.34,11.34,0,0,0,2.82-7.54c0-.34-.07-.6-.07-.94H92.62a19.23,19.23,0,0,1,.08,2.14v.77h0v0c-.23,4.54-3.59,8.14-7.7,8.14-4.27,0-7.77-3.86-7.77-8.65v0a22.56,22.56,0,0,1,.15-2.4H69.45c0,.34-.07.6-.07.94a11.14,11.14,0,0,0,2.44,7Z"/><polygon class="cls-3" points="25.94 99.39 25.94 102.3 21.07 102.3 21.07 99.39 20.08 99.39 20.08 106.06 21.07 106.06 21.07 103.15 25.94 103.15 25.94 106.06 27.01 106.06 27.01 99.39 25.94 99.39 25.94 99.39"/><polygon class="cls-3" points="38.21 106.06 39.2 106.06 39.2 99.39 38.21 99.39 38.21 106.06 38.21 106.06"/><polygon class="cls-3" points="39.28 102.38 43.09 99.39 44.84 99.39 40.88 102.38 45.6 106.06 43.7 106.06 39.28 102.38 39.28 102.38"/><polygon class="cls-3" points="46.37 106.06 47.43 106.06 47.43 99.39 46.37 99.39 46.37 106.06 46.37 106.06"/><polygon class="cls-3" points="28.15 106.06 29.14 106.06 29.14 99.39 28.15 99.39 28.15 106.06 28.15 106.06"/><polygon class="cls-3" points="133.16 106.06 134.23 106.06 134.23 99.39 133.16 99.39 133.16 106.06 133.16 106.06"/><polygon class="cls-3" points="58.41 100.24 58.41 99.13 52.01 99.04 52.01 106.06 58.41 106.06 58.41 104.86 52.99 104.86 52.99 102.81 58.41 102.81 58.41 101.95 52.99 101.95 52.99 100.24 58.41 100.24 58.41 100.24"/><polygon class="cls-3" points="69.99 100.24 69.99 99.13 63.59 99.04 63.59 106.06 69.99 106.06 69.99 104.86 64.58 104.86 64.58 102.81 69.99 102.81 69.99 101.95 64.58 101.95 64.58 100.24 69.99 100.24 69.99 100.24"/><polygon class="cls-3" points="59.55 105.98 60.62 105.98 60.62 104.86 59.55 104.86 59.55 105.98 59.55 105.98"/><polygon class="cls-3" points="71.06 106.06 72.05 106.06 72.05 104.86 71.06 104.86 71.06 106.06 71.06 106.06"/><polygon class="cls-3" points="148.86 99.39 148.86 104.27 144.28 99.39 143.29 99.39 143.29 106.06 144.28 106.06 144.28 101.01 148.86 105.98 148.86 106.06 149.92 106.06 149.92 99.39 148.86 99.39 148.86 99.39"/><polygon class="cls-3" points="132.78 99.39 125.92 99.39 125.92 100.33 128.74 100.33 128.74 106.06 129.96 106.06 129.96 100.33 132.78 100.33 132.78 99.39 132.78 99.39"/><path class="cls-3" d="M104.28,99.39H98.56v6.67h1v-2.91h4.81c1.21-.17,1.29-3.68-.08-3.76Zm-.23,2.91h-4.5v-2.06h4.5c.46,0,.38,2.06,0,2.06Z"/><path class="cls-3" d="M96.05,103.07h.46V103c1.37,0,1.37-3.59,0-3.59H90.72V106h1.06v-2.91h3.13l1.6,3h1.22l-1.68-3Zm-4.27-.94v-1.89h4.5c.38,0,.38,1.89,0,1.89h-4.5Z"/><path class="cls-3" d="M118.68,103.07h.53V103c1.3,0,1.3-3.59,0-3.59h-5.79V106h1v-2.91h3.13l1.67,3h1.22l-1.75-3Zm-4.27-.94v-1.89h4.5c.46,0,.38,1.89,0,1.89h-4.5Z"/><path class="cls-3" d="M33.72,99a3.59,3.59,0,0,0-3.51,3.77,3.47,3.47,0,1,0,6.94,0A3.57,3.57,0,0,0,33.72,99Zm-.08,6.77c-1.3,0-2.36-1.54-2.36-3s1.06-3.25,2.36-3.25S36,101.35,36,102.81s-1.06,3-2.36,3Z"/><path class="cls-3" d="M87.82,99.21h-2.9a2,2,0,0,0-1.9,2.06v2.82a2.07,2.07,0,0,0,1.9,2.15h2.9a2.07,2.07,0,0,0,1.9-2.15v-2.82a2,2,0,0,0-1.9-2.06Zm.84,4.8a1.08,1.08,0,0,1-1,1.11H85a1,1,0,0,1-.91-1.11v-2.66a1,1,0,0,1,.91-1.11h2.67a1.08,1.08,0,0,1,1,1.11V104Z"/><path class="cls-3" d="M110.6,99.21h-2.82a2,2,0,0,0-1.9,2.06v2.82a2,2,0,0,0,1.9,2.15h2.82a2,2,0,0,0,1.91-2.15v-2.82a2,2,0,0,0-1.91-2.06Zm.92,4.8a1.08,1.08,0,0,1-1,1.11h-2.67a1.08,1.08,0,0,1-1-1.11v-2.66a1.08,1.08,0,0,1,1-1.11h2.67a1.08,1.08,0,0,1,1,1.11V104Z"/><path class="cls-3" d="M140.47,99.21h-2.89a2.05,2.05,0,0,0-1.91,2.06v2.82a2.08,2.08,0,0,0,1.91,2.15h2.89a2.07,2.07,0,0,0,1.91-2.15v-2.82a2,2,0,0,0-1.91-2.06Zm.84,4.8a1.07,1.07,0,0,1-1,1.11h-2.66a1,1,0,0,1-.92-1.11v-2.66a1,1,0,0,1,.92-1.11h2.66a1.07,1.07,0,0,1,1,1.11V104Z"/><path class="cls-3" d="M81,103.92V104a1.07,1.07,0,0,1-.91,1.11H77.3a1.07,1.07,0,0,1-.91-1.11v-2.66a1,1,0,0,1,.91-1h2.75a1,1,0,0,1,.91,1v.09H82v-.09a2,2,0,0,0-1.91-2.14H77.23a2,2,0,0,0-1.83,2.14v2.74a2,2,0,0,0,1.83,2.15h2.89A2,2,0,0,0,82,104.09v-.17Z"/><path class="cls-3" d="M126.3,106.06h1.07l-2.75-6.76-.07.09V99.3H122.8L120,106.06h1.14l.53-1.45h4l.61,1.45Zm-4.19-2.56,1.37-3.43h.38l1.37,3.43Z"/><line class="cls-4" x1="20.08" y1="94.68" x2="150" y2="94.68"/></svg>