<svg xmlns="http://www.w3.org/2000/svg" width="130" height="130" viewBox="0 0 130 130" fill="none"><path d="M90.3777 75.3234L82.5574 61.2169C79.0308 62.9802 75.3161 64.6377 71.4133 66.1895C62.5948 69.7707 53.3949 72.3296 43.9937 73.8158V75.3146H90.3777" fill="#00A1E9"></path><path d="M114.218 31.2053C110.197 21.6746 85.3258 23.4115 58.3912 34.4322C31.4566 45.4529 12.1218 61.8076 16.6624 71.1003C21.2029 80.393 45.757 79.0352 72.7181 68.4553C99.6792 57.8754 118.282 40.736 114.218 31.2053ZM70.3729 62.848C45.8717 72.8636 23.3629 75.1912 20.2595 67.847C17.1561 60.5028 34.657 46.2728 59.1582 36.2572C83.6595 26.2416 106.027 24.0727 109.122 31.4169C112.216 38.7611 94.8653 52.8324 70.3729 62.848Z" fill="#004098"></path><path d="M79.5862 55.8917L77.1352 51.4834C79.6321 50.7796 81.8304 49.2787 83.3951 47.2094C84.9598 45.1402 85.805 42.6161 85.8019 40.0219C85.7993 37.063 84.6525 34.2197 82.6015 32.087C80.7596 30.3621 78.5269 29.1096 76.0949 28.4369C73.106 27.5024 70.2407 27.5552 65.753 27.5552H43.9937V68.279C52.5916 66.6007 60.9939 64.0421 69.0681 60.6438C72.7534 59.1362 76.2712 57.5404 79.5862 55.8917" fill="#00A1E9"></path><path d="M35.759 83.6551H46.4359C47.2015 83.6256 47.9649 83.7541 48.6787 84.0326C49.3924 84.311 50.0412 84.7334 50.5846 85.2735C51.128 85.8136 51.5544 86.4598 51.8372 87.1719C52.12 87.8839 52.2532 88.6466 52.2284 89.4123C52.2284 91.8633 51.285 93.6972 49.0897 94.6317V94.6934C51.2321 95.2753 51.8405 97.4618 51.9815 99.569C52.0609 100.883 52.0344 103.334 52.8103 104.497H48.4549C47.9259 103.184 47.9876 101.174 47.7584 99.5073C47.4586 97.3208 46.6563 96.3598 44.461 96.3598H40.1056V104.497H35.759V83.6551ZM40.1056 93.0888H44.8842C46.8238 93.0888 47.873 92.2072 47.873 90.1088C47.873 88.0105 46.8679 87.217 44.8842 87.217H40.1056V93.0888Z" fill="#004098"></path><path d="M60.1281 83.6639H55.7727V104.506H60.1281V83.6639Z" fill="#004098"></path><path d="M72.8239 83.1614C78.9955 83.1614 82.5221 87.984 82.5221 94.1644C82.5221 100.177 78.9162 105 72.8239 105C66.7317 105 63.1257 100.177 63.1257 94.1644C63.1257 87.9928 66.7317 83.1614 72.8239 83.1614V83.1614ZM72.8239 101.147C76.7385 101.147 78.202 97.6205 78.202 94.1644C78.202 90.5232 76.7385 87.0142 72.8239 87.0142C68.9094 87.0142 67.4458 90.5408 67.4458 94.1644C67.4458 97.6205 68.9094 101.147 72.8239 101.147Z" fill="#004098"></path><path d="M85.5198 83.6639H89.8487L98.1098 97.647H98.1715V83.6639H102.245V104.497H97.8894L89.6547 90.5497H89.6018V104.497H85.5198V83.6639Z" fill="#004098"></path></svg>