<svg id="Layer_1" data-name="Layer 1" xmlns="http://www.w3.org/2000/svg" viewBox="0 0 130 130"><defs><style>.cls-1{fill:#00a64f;fill-rule:evenodd;}</style></defs><path class="cls-1" d="M19.12,79.43l9.05-28.86h6.4l-9,28.86Zm88-11.65,2-6.11,4.37,0V50.17L125,65,113.47,79.8V67.72ZM22.78,62.3,21,68H16.55V79.8L5,64.94,16.53,50.17v12.2ZM89.13,79.43l9-28.86H112.5l-1.75,5.58h-7.92L101,61.89h7l-1.73,5.5h-7l-2,6.46h8.16l-1.75,5.58Zm-17,0L73.82,74,88.54,56.15H79.91l1.75-5.58H97.38L95.68,56,81,73.85h9l-1.75,5.58Zm-7.1,0,9-28.86h6.4l-9,28.86Zm-14.9-10h6.33l-.73,2.35A3.38,3.38,0,0,0,55.54,74a1.27,1.27,0,0,0,1.32.72A2.66,2.66,0,0,0,58.59,74a3.62,3.62,0,0,0,1.28-2.6,2.78,2.78,0,0,0-.15-.9,4.28,4.28,0,0,0-1.07-1.8l-1.08-1.16a24.28,24.28,0,0,1-3.12-3.71,5.36,5.36,0,0,1-.82-2.68,9.53,9.53,0,0,1,.49-3.34,10.73,10.73,0,0,1,3.94-5.65,10.57,10.57,0,0,1,3.09-1.51,12.67,12.67,0,0,1,3.67-.51c2.61,0,4.37.61,5.32,1.84s1,3.06.26,5.52l-.74,2.37H63.6l.63-2a3.16,3.16,0,0,0,.15-2c-.19-.44-.62-.66-1.31-.66a2.45,2.45,0,0,0-1.55.58,3.22,3.22,0,0,0-1,1.55c-.33,1.07.53,2.78,2.6,5.14l.11.14.37.42c1.8,2.09,2.81,3.59,3,4.52a6.83,6.83,0,0,1,.1,2,11.64,11.64,0,0,1-4.58,8.17,11.77,11.77,0,0,1-7,2.09q-4,0-5.5-2.1t-.19-6.11Zm-22.57,10,9.05-28.86h7.18l-.35,11.7c0,.64-.05,1.46-.1,2.45,0,.58-.06,1.1-.09,1.55,0,.21-.08,1.09-.21,2.66-.06.57-.1,1.14-.14,1.7.3-1.6.47-2.5.5-2.69.12-.58.27-1.12.43-1.64s.42-1.39.74-2.56.56-2,.71-2.47l3.35-10.7h6.22l-9,28.86H38.86L39.07,67c0-1.34.09-2.69.18-4s.27-2.73.47-4.37c-.23.73-.48,1.77-.78,3.14s-.53,2.35-.72,3c-.25.77-.45,1.47-.62,2.07-.58,2.12-.88,3.2-.89,3.26l-2.94,9.36Z"/></svg>