<svg xmlns="http://www.w3.org/2000/svg" id="Layer_1" data-name="Layer 1" viewBox="0 0 130 130"><defs><style>.cls-1{fill:#130813;}</style></defs><path class="cls-1" d="M56,105h2.29V93.5H56Zm26-3.19a3.5,3.5,0,0,1-5,0,3.94,3.94,0,0,1,0-5.13,3.5,3.5,0,0,1,5,0,3.94,3.94,0,0,1,0,5.13m-2.5-8.3a5.65,5.65,0,1,0,4.09,1.66,5.49,5.49,0,0,0-4.09-1.66m14.28,5.55a5.62,5.62,0,0,0-2.63-1,3,3,0,0,1-1.76-.7.88.88,0,0,1,0-1.11c.26-.43.83-.64,1.76-.64a2.61,2.61,0,0,1,2.14.92L94.81,95a5.43,5.43,0,0,0-1.64-1.15,6.32,6.32,0,0,0-2.48-.38,4.54,4.54,0,0,0-2.68.93,2.86,2.86,0,0,0-1.31,2.45,2.55,2.55,0,0,0,1.15,2.37,6,6,0,0,0,2.52.84c1,.1,1.66.37,1.91.81a1.2,1.2,0,0,1,0,1.29c-.25.44-.9.65-1.91.65a3.73,3.73,0,0,1-2.61-1.06l-1.52,1.52a5.61,5.61,0,0,0,1.83,1.23,6.89,6.89,0,0,0,2.66.46,4.68,4.68,0,0,0,3-1A3,3,0,0,0,95,101.63a2.85,2.85,0,0,0-1.19-2.58m-27.47.11-5-5.66h-.76V105h2.29V98.33l3.44,3.82,3.45-3.82V105h2.29V93.5h-.76ZM35,95.65h3.3V105h2.3V95.65h3.18V93.5H35ZM50.51,98.1H47.29V95.66h3.25c.91,0,1.37.42,1.4,1.18s-.51,1.23-1.43,1.26M54,96.8c0-2.21-1.34-3.3-4-3.3H45V105h2.29v-4.75H49.4L52.15,105h2.64l-2.87-5A3,3,0,0,0,54,96.8"></path><path class="cls-1" d="M62,85.87h0a29.9,29.9,0,0,0,3.53.24h0a25.3,25.3,0,0,0,19.92-9.66L80,62.85A14.58,14.58,0,0,1,65.49,75.29a13.11,13.11,0,0,1-3-.32v0L42.88,72.23h0L32,70.7a.3.3,0,0,0-.18,0,.54.54,0,0,0-.28.74.18.18,0,0,0,0,.1,36.37,36.37,0,0,0,5.57,10.77Z"></path><path class="cls-1" d="M60.11,47.16a14.56,14.56,0,0,1,19.12,8.63L91,85c0,.09.09.14.14.23a.55.55,0,0,0,.69-.05,36.24,36.24,0,0,0,6.69-10.3l-9-22.38A25.35,25.35,0,0,0,69.16,35.6Z"></path><path class="cls-1" d="M56.53,72.18a14.64,14.64,0,0,1-3.34-19.26h0c.28-.42.56-.84.88-1.26h0L73.52,26.78h0l0-.05.09-.09c0-.05,0-.05,0-.09a.55.55,0,0,0-.37-.74,36.23,36.23,0,0,0-11.93-.56c-.14,0-.28.05-.37.05L45.25,45.49h0a10.09,10.09,0,0,0-1.11,1.67,25.55,25.55,0,0,0-3.9,13.46,25,25,0,0,0,1.81,9.43Z"></path></svg>