<svg xmlns="http://www.w3.org/2000/svg" id="Layer_1" data-name="Layer 1" viewBox="0 0 130 130"><defs><style>.cls-1{fill:#ea1c2b;fill-rule:evenodd;}</style></defs><polygon class="cls-1" points="5 74.08 10.13 74.08 10.13 59.2 16.4 74.08 17.55 74.08 27.68 49.82 25.51 49.82 18.54 66.05 11.52 49.82 5 49.82 5 74.08 5 74.08"></polygon><polygon class="cls-1" points="29.39 49.82 32.8 49.82 32.8 74.08 27.68 74.08 27.68 58.95 21.6 74.08 19.44 74.08 29.39 49.82 29.39 49.82"></polygon><polygon class="cls-1" points="35.72 49.82 39.65 49.82 39.65 54 35.72 54 35.72 49.82 35.72 49.82"></polygon><polygon class="cls-1" points="35.72 56.04 39.65 56.04 39.65 74.08 35.72 74.08 35.72 56.04 35.72 56.04"></polygon><polygon class="cls-1" points="92.57 55.59 96.8 55.59 100.41 65.8 104.59 55.59 106.63 55.59 96.5 80.61 94.73 80.61 98.27 71.3 92.57 55.59 92.57 55.59"></polygon><polygon class="cls-1" points="100.18 80.61 110.24 55.59 108.2 55.59 98.29 80.61 100.18 80.61 100.18 80.61"></polygon><path class="cls-1" d="M59.24,71A2.12,2.12,0,0,1,57,69v-13H53.14v13.5a4.56,4.56,0,0,0,4.18,4.68h8.31V55.91H61.7V71Z"></path><path class="cls-1" d="M73.92,70.72a2,2,0,0,1-1.76-2V59.08h4.68V55.59H72.16v-6.2H68.22V68.58c0,3.12,1.9,5.51,4.19,5.51h4.7V70.72Z"></path><path class="cls-1" d="M48.09,70.72a1.93,1.93,0,0,1-1.67-2V59.08H51V55.59H46.42v-6.2H42.51V68.58c0,3.12,1.89,5.51,4.18,5.51h4.56V70.72Z"></path><path class="cls-1" d="M85.47,55.14c-6.67,0-7.24,6.52-7.24,9.88s.57,9.59,7.24,9.51c0,0,0,0,0,0,6.65.13,7-6.79,7-9.46,0-3-.28-9.88-7-9.88Zm0,15.86H85.4c-3.16-.28-3.24-4.18-3.24-6,0-2.14.08-5.94,3.24-6.07,0,0,0,0,.07,0,3.66.08,3.29,6,3.29,6s.25,5.78-3.29,6Z"></path><path class="cls-1" d="M117.83,55.59c-6.57-.2-7.09,6.27-7.09,9.56s.64,9.71,7,9.58h0c6.8.13,7.17-6.67,7.17-9.58s-.37-9.68-7.09-9.56Zm0,15.66h-.12c-3.11-.25-3.29-4.18-3.29-6.1s.18-5.75,3.29-5.75h.12c3.74.12,3.36,5.75,3.36,5.75s.38,5.77-3.36,6.1Z"></path></svg>