<svg xmlns="http://www.w3.org/2000/svg" id="Layer_1" data-name="Layer 1" viewBox="0 0 130 130"><defs><style>.cls-1{fill:#d91f3d;}.cls-1,.cls-2{fill-rule:evenodd;}.cls-2{fill:#231f20;}</style></defs><path class="cls-1" d="M5,65C5,48.2,31.86,34.65,65,34.65S125,48.2,125,65,98.14,95.35,65,95.35,5,81.72,5,65M65,93.41c32.05,0,58.06-12.69,58.06-28.41,0-15.41-26-28.49-58.06-28.49S6.94,49.28,6.94,65,33,93.41,65,93.41"></path><polygon class="cls-2" points="26.21 52.15 33.8 52.15 39.37 69.95 45.03 52.15 52.53 52.15 52.53 75.61 48.05 75.61 48.05 56.25 47.97 56.25 41.62 75.61 37.13 75.61 30.78 56.25 30.7 56.33 30.7 75.61 26.21 75.61 26.21 52.15"></polygon><path class="cls-2" d="M57.88,59.19a15.94,15.94,0,0,1,6-1.24c5.26,0,7.43,2.17,7.43,7.28V67.4c0,1.78,0,3.1.08,4.34s.07,2.55.15,3.87h-4a16.6,16.6,0,0,1-.15-2.56H67.4a6.25,6.25,0,0,1-5.34,3c-3.1,0-6.12-1.86-6.12-5.19a5.21,5.21,0,0,1,3-4.95,13.57,13.57,0,0,1,5.81-1h2.47c0-2.78-1.23-3.71-3.87-3.71A9.31,9.31,0,0,0,58,63.06Zm5.26,13.55a3.86,3.86,0,0,0,3.18-1.55,6.16,6.16,0,0,0,.92-3.56H65.31c-2,0-5,.31-5,3,0,1.47,1.24,2.09,2.86,2.09"></path><path class="cls-2" d="M75.92,50.45h4.49V60.66h.07A6.29,6.29,0,0,1,85.9,58c4.11,0,5.89,2.87,5.89,6.74V75.61H87.3V66.39c0-2.09-.08-5-3-5-3.25,0-3.94,3.48-3.94,5.73v8.44H75.92Z"></path><path class="cls-2" d="M96.28,58.34h4v3.95h.08c.16-1.63,2-4.34,4.72-4.34a8.7,8.7,0,0,1,1.4.08V62.6a5,5,0,0,0-2-.39c-3.71,0-3.71,4.57-3.71,7.05v6.35H96.28Z"></path></svg>